<svg width="24" height="24" viewBox="0 0 24 24" fill="none" xmlns="http://www.w3.org/2000/svg">
<rect width="24" height="24" rx="12" fill="#FFF0F0"/>
<path d="M12 3.875C10.393 3.875 8.82214 4.35152 7.486 5.24431C6.14985 6.1371 5.10844 7.40605 4.49348 8.8907C3.87852 10.3753 3.71762 12.009 4.03112 13.5851C4.34463 15.1612 5.11846 16.6089 6.25476 17.7452C7.39106 18.8815 8.8388 19.6554 10.4149 19.9689C11.991 20.2824 13.6247 20.1215 15.1093 19.5065C16.594 18.8916 17.8629 17.8502 18.7557 16.514C19.6485 15.1779 20.125 13.607 20.125 12C20.1225 9.84588 19.2657 7.7807 17.7425 6.25751C16.2193 4.73431 14.1541 3.87749 12 3.875ZM14.9419 14.0581C15 14.1161 15.0462 14.185 15.0776 14.2609C15.1091 14.3367 15.1254 14.418 15.1254 14.5001C15.1255 14.5823 15.1093 14.6636 15.0779 14.7395C15.0465 14.8153 15.0004 14.8843 14.9424 14.9424C14.8843 15.0004 14.8154 15.0465 14.7395 15.0779C14.6636 15.1093 14.5823 15.1254 14.5001 15.1254C14.418 15.1254 14.3367 15.1091 14.2609 15.0776C14.185 15.0462 14.1161 15 14.0581 14.9419L12 12.8838L9.9419 14.9419C9.82466 15.0589 9.66577 15.1246 9.50014 15.1245C9.33451 15.1244 9.1757 15.0585 9.05858 14.9414C8.94146 14.8243 8.87563 14.6655 8.87554 14.4999C8.87545 14.3342 8.94112 14.1753 9.05811 14.0581L11.1162 12L9.05811 9.94189C8.94112 9.82465 8.87545 9.66576 8.87554 9.50014C8.87563 9.33451 8.94146 9.17569 9.05858 9.05858C9.1757 8.94146 9.33451 8.87563 9.50014 8.87554C9.66577 8.87545 9.82466 8.94111 9.9419 9.05811L12 11.1162L14.0581 9.05811C14.1754 8.94111 14.3342 8.87545 14.4999 8.87554C14.6655 8.87563 14.8243 8.94146 14.9414 9.05858C15.0585 9.17569 15.1244 9.33451 15.1245 9.50014C15.1246 9.66576 15.0589 9.82465 14.9419 9.94189L12.8838 12L14.9419 14.0581Z" fill="#D93535"/>
</svg>
