<svg width="24" height="24" viewBox="0 0 24 24" fill="none" xmlns="http://www.w3.org/2000/svg">
<rect width="24" height="24" rx="12" fill="#EBF4FF"/>
<path d="M12 3.875C10.393 3.875 8.82214 4.35152 7.486 5.24431C6.14985 6.1371 5.10844 7.40605 4.49348 8.8907C3.87852 10.3753 3.71762 12.009 4.03112 13.5851C4.34463 15.1612 5.11846 16.6089 6.25476 17.7452C7.39106 18.8815 8.8388 19.6554 10.4149 19.9689C11.991 20.2824 13.6247 20.1215 15.1093 19.5065C16.594 18.8916 17.8629 17.8502 18.7557 16.514C19.6485 15.1779 20.125 13.607 20.125 12C20.1225 9.84588 19.2657 7.7807 17.7425 6.25751C16.2193 4.73431 14.1541 3.87749 12 3.875ZM11.9999 7.625C12.1853 7.625 12.3666 7.67998 12.5208 7.783C12.6749 7.88601 12.7951 8.03243 12.8661 8.20373C12.937 8.37504 12.9556 8.56354 12.9194 8.7454C12.8832 8.92725 12.794 9.0943 12.6628 9.22541C12.5317 9.35652 12.3647 9.44581 12.1828 9.48199C12.001 9.51816 11.8125 9.49959 11.6412 9.42864C11.4699 9.35768 11.3234 9.23752 11.2204 9.08335C11.1174 8.92918 11.0624 8.74792 11.0624 8.5625C11.0624 8.43939 11.0867 8.31748 11.1338 8.20373C11.1809 8.08999 11.25 7.98664 11.337 7.89959C11.4241 7.81253 11.5274 7.74348 11.6412 7.69636C11.7549 7.64925 11.8768 7.625 11.9999 7.625H11.9999ZM12.625 16.375H12C11.9179 16.375 11.8366 16.3589 11.7608 16.3275C11.6849 16.2961 11.616 16.2501 11.558 16.192C11.4999 16.134 11.4539 16.0651 11.4225 15.9892C11.3911 15.9134 11.375 15.8321 11.375 15.75V12C11.2092 12 11.0503 11.9342 10.9331 11.8169C10.8159 11.6997 10.75 11.5408 10.75 11.375C10.75 11.2092 10.8159 11.0503 10.9331 10.9331C11.0503 10.8158 11.2092 10.75 11.375 10.75H12C12.0821 10.75 12.1634 10.7661 12.2392 10.7975C12.3151 10.8289 12.384 10.8749 12.4421 10.933C12.5001 10.991 12.5461 11.0599 12.5775 11.1358C12.6089 11.2116 12.6251 11.2929 12.625 11.375V15.125C12.7908 15.125 12.9497 15.1908 13.0669 15.3081C13.1842 15.4253 13.25 15.5842 13.25 15.75C13.25 15.9158 13.1842 16.0747 13.0669 16.1919C12.9497 16.3092 12.7908 16.375 12.625 16.375Z" fill="#307FE2"/>
</svg>
