<svg width="24" height="24" viewBox="0 0 24 24" fill="none" xmlns="http://www.w3.org/2000/svg">
<rect width="24" height="24" rx="12" fill="#EBFFF3"/>
<path d="M12 3.875C10.393 3.875 8.82214 4.35152 7.486 5.24431C6.14985 6.1371 5.10844 7.40605 4.49348 8.8907C3.87852 10.3753 3.71762 12.009 4.03112 13.5851C4.34463 15.1612 5.11846 16.6089 6.25476 17.7452C7.39106 18.8815 8.8388 19.6554 10.4149 19.9689C11.991 20.2824 13.6247 20.1215 15.1093 19.5065C16.594 18.8916 17.8629 17.8502 18.7557 16.514C19.6485 15.1779 20.125 13.607 20.125 12C20.1225 9.84588 19.2657 7.7807 17.7425 6.25751C16.2193 4.73431 14.1541 3.87749 12 3.875ZM15.8696 10.5773L11.2859 14.9523C11.1693 15.0632 11.0146 15.125 10.8538 15.125C10.6929 15.125 10.5382 15.0632 10.4216 14.9523L8.13037 12.7648C8.01067 12.6501 7.94137 12.4926 7.9377 12.3269C7.93403 12.1612 7.99629 12.0008 8.11081 11.8809C8.22532 11.7611 8.38272 11.6916 8.54844 11.6877C8.71416 11.6838 8.87464 11.7459 8.99463 11.8602L10.8538 13.6357L15.0054 9.67273C15.1254 9.55837 15.2859 9.49631 15.4516 9.50019C15.6173 9.50407 15.7747 9.57357 15.8892 9.69342C16.0037 9.81327 16.066 9.97367 16.0623 10.1394C16.0586 10.3051 15.9893 10.4626 15.8696 10.5773Z" fill="#09A854"/>
</svg>
