<svg width="24" height="24" viewBox="0 0 24 24" fill="none" xmlns="http://www.w3.org/2000/svg">
<rect width="24" height="24" rx="12" fill="#FFF6F0"/>
<path d="M12 3.875C10.393 3.875 8.82214 4.35152 7.486 5.24431C6.14985 6.1371 5.10844 7.40605 4.49348 8.8907C3.87852 10.3753 3.71762 12.009 4.03112 13.5851C4.34463 15.1612 5.11846 16.6089 6.25476 17.7452C7.39106 18.8815 8.8388 19.6554 10.4149 19.9689C11.991 20.2824 13.6247 20.1215 15.1093 19.5065C16.594 18.8916 17.8629 17.8502 18.7557 16.514C19.6485 15.1779 20.125 13.607 20.125 12C20.1226 9.84586 19.2658 7.78065 17.7426 6.25744C16.2194 4.73424 14.1541 3.87743 12 3.875ZM11.375 8.25C11.375 8.08424 11.4409 7.92527 11.5581 7.80806C11.6753 7.69085 11.8342 7.625 12 7.625C12.1658 7.625 12.3247 7.69085 12.4419 7.80806C12.5592 7.92527 12.625 8.08424 12.625 8.25V12.625C12.625 12.7908 12.5592 12.9497 12.4419 13.0669C12.3247 13.1842 12.1658 13.25 12 13.25C11.8342 13.25 11.6753 13.1842 11.5581 13.0669C11.4409 12.9497 11.375 12.7908 11.375 12.625V8.25ZM12 16.375C11.8146 16.375 11.6333 16.32 11.4792 16.217C11.325 16.114 11.2048 15.9676 11.1339 15.7963C11.0629 15.625 11.0443 15.4365 11.0805 15.2546C11.1167 15.0727 11.206 14.9057 11.3371 14.7746C11.4682 14.6435 11.6352 14.5542 11.8171 14.518C11.999 14.4818 12.1875 14.5004 12.3588 14.5714C12.5301 14.6423 12.6765 14.7625 12.7795 14.9167C12.8825 15.0708 12.9375 15.2521 12.9375 15.4375C12.9375 15.6861 12.8387 15.9246 12.6629 16.1004C12.4871 16.2762 12.2486 16.375 12 16.375Z" fill="#E1721D"/>
</svg>
